<?xml version="1.0" encoding="UTF-8" standalone="no"?>
<svg
   xmlns:dc="http://purl.org/dc/elements/1.1/"
   xmlns:cc="http://creativecommons.org/ns#"
   xmlns:rdf="http://www.w3.org/1999/02/22-rdf-syntax-ns#"
   xmlns:svg="http://www.w3.org/2000/svg"
   xmlns="http://www.w3.org/2000/svg"
   xmlns:xlink="http://www.w3.org/1999/xlink"
   xmlns:sodipodi="http://sodipodi.sourceforge.net/DTD/sodipodi-0.dtd"
   xmlns:inkscape="http://www.inkscape.org/namespaces/inkscape"
   id="svg2"
   version="1.1"
   inkscape:version="1.0.2 (e86c870879, 2021-01-15)"
   width="1079.3472"
   height="1078.4298"
   viewBox="0 0 1079.3472 1078.4298"
   sodipodi:docname="logo.svg"
   inkscape:export-filename="/home/eike/workspace/projects/binny/modules/microsite/src/main/resources/microsite/img/logo.png"
   inkscape:export-xdpi="95.900002"
   inkscape:export-ydpi="95.900002">
  <metadata
     id="metadata8">
    <rdf:RDF>
      <cc:Work
         rdf:about="">
        <dc:format>image/svg+xml</dc:format>
        <dc:type
           rdf:resource="http://purl.org/dc/dcmitype/StillImage" />
        <dc:title></dc:title>
      </cc:Work>
    </rdf:RDF>
  </metadata>
  <defs
     id="defs6">
    <linearGradient
       inkscape:collect="always"
       id="linearGradient4250">
      <stop
         style="stop-color:#ff0000;stop-opacity:1"
         offset="0"
         id="stop4252" />
      <stop
         style="stop-color:#800000;stop-opacity:1"
         offset="1"
         id="stop4254" />
    </linearGradient>
    <linearGradient
       inkscape:collect="always"
       id="linearGradient4232">
      <stop
         style="stop-color:#fcbf5c;stop-opacity:1;"
         offset="0"
         id="stop4234" />
      <stop
         style="stop-color:#bd862c;stop-opacity:1"
         offset="1"
         id="stop4236" />
    </linearGradient>
    <linearGradient
       id="linearGradient4226"
       inkscape:collect="always">
      <stop
         id="stop4228"
         offset="0"
         style="stop-color:#ffffff;stop-opacity:1" />
      <stop
         id="stop4230"
         offset="1"
         style="stop-color:#0000ff;stop-opacity:1" />
    </linearGradient>
    <radialGradient
       inkscape:collect="always"
       xlink:href="#linearGradient4226"
       id="radialGradient4200"
       cx="310.82709"
       cy="59.384693"
       fx="310.82709"
       fy="59.384693"
       r="69.330696"
       gradientTransform="matrix(2.7826147,1.6339614,-1.7544297,2.9877711,-40.76942,-264.61899)"
       gradientUnits="userSpaceOnUse" />
    <radialGradient
       inkscape:collect="always"
       xlink:href="#linearGradient4226"
       id="radialGradient4200-9"
       cx="293.57733"
       cy="90.339684"
       fx="293.57733"
       fy="90.339684"
       r="69.330696"
       gradientTransform="matrix(3.1942229,1.413498,-1.6175116,3.6552525,34.59654,-274.94111)"
       gradientUnits="userSpaceOnUse" />
    <radialGradient
       inkscape:collect="always"
       xlink:href="#linearGradient4232"
       id="radialGradient4238"
       cx="137.69594"
       cy="364.36145"
       fx="137.69594"
       fy="364.36145"
       r="433.125"
       gradientTransform="matrix(-0.54600176,-0.79879499,0.57284105,-0.39155523,478.51362,827.7029)"
       gradientUnits="userSpaceOnUse" />
    <radialGradient
       inkscape:collect="always"
       xlink:href="#linearGradient4250"
       id="radialGradient4256"
       cx="377.82162"
       cy="417.35443"
       fx="377.82162"
       fy="417.35443"
       r="130.15282"
       gradientTransform="matrix(-1.5124218,-0.09128755,0.02279913,-0.37772846,1386.6657,923.29294)"
       gradientUnits="userSpaceOnUse" />
    <filter
       style="color-interpolation-filters:sRGB"
       inkscape:label="Drop Shadow"
       id="filter4361">
      <feFlood
         flood-opacity="0.498039"
         flood-color="rgb(0,0,0)"
         result="flood"
         id="feFlood4363" />
      <feComposite
         in="flood"
         in2="SourceGraphic"
         operator="in"
         result="composite1"
         id="feComposite4365" />
      <feGaussianBlur
         in="composite1"
         stdDeviation="10.4167"
         result="blur"
         id="feGaussianBlur4367" />
      <feOffset
         dx="6"
         dy="6"
         result="offset"
         id="feOffset4369" />
      <feComposite
         in="SourceGraphic"
         in2="offset"
         operator="over"
         result="fbSourceGraphic"
         id="feComposite4371" />
      <feColorMatrix
         result="fbSourceGraphicAlpha"
         in="fbSourceGraphic"
         values="0 0 0 -1 0 0 0 0 -1 0 0 0 0 -1 0 0 0 0 1 0"
         id="feColorMatrix4373" />
      <feFlood
         id="feFlood4375"
         flood-opacity="0.498039"
         flood-color="rgb(0,0,0)"
         result="flood"
         in="fbSourceGraphic" />
      <feComposite
         id="feComposite4377"
         in2="fbSourceGraphic"
         in="flood"
         operator="in"
         result="composite1" />
      <feGaussianBlur
         id="feGaussianBlur4379"
         in="composite1"
         stdDeviation="10.4"
         result="blur" />
      <feOffset
         id="feOffset4381"
         dx="6"
         dy="6"
         result="offset" />
      <feComposite
         id="feComposite4383"
         in2="offset"
         in="fbSourceGraphic"
         operator="over"
         result="composite2" />
    </filter>
  </defs>
  <sodipodi:namedview
     pagecolor="#ffffff"
     bordercolor="#666666"
     borderopacity="1"
     objecttolerance="10"
     gridtolerance="10"
     guidetolerance="10"
     inkscape:pageopacity="0"
     inkscape:pageshadow="2"
     inkscape:window-width="1020"
     inkscape:window-height="1541"
     id="namedview4"
     showgrid="false"
     inkscape:zoom="0.21865069"
     inkscape:cx="539.67358"
     inkscape:cy="1167.8468"
     inkscape:window-x="4"
     inkscape:window-y="39"
     inkscape:window-maximized="0"
     inkscape:current-layer="svg2"
     fit-margin-top="0"
     fit-margin-left="0"
     fit-margin-right="0"
     fit-margin-bottom="0"
     inkscape:document-rotation="0" />
  <path
     sodipodi:nodetypes="cccccccccccccc"
     inkscape:connector-curvature="0"
     id="path4184-7"
     d="m 911.47604,329.26073 15.92284,24.54772 14.59593,26.53806 8.62487,53.07613 -7.96141,42.4609 -12.60559,33.83604 -83.5949,-7.96142 -6.63452,-43.78781 -20.567,-16.58629 -0.66345,-59.71065 -13.93248,-62.36445 39.14364,-9.28832 37.81674,7.96142 z"
     style="fill:url(#radialGradient4200-9);fill-opacity:1;fill-rule:evenodd;stroke:none;stroke-width:1px;stroke-linecap:butt;stroke-linejoin:miter;stroke-opacity:1;filter:url(#filter4361)" />
  <path
     inkscape:connector-curvature="0"
     id="path4184"
     d="m 785.30635,304.91602 20.567,34.49949 7.96142,37.81674 3.31726,57.72029 -4.64416,35.16294 -15.25939,39.8071 -15.92284,5.97107 -36.48984,-34.49949 -15.92284,-17.24974 -50.42232,-80.27765 15.92284,-45.11471 25.87461,-29.85533 25.21116,-9.95177 z"
     style="fill:url(#radialGradient4200);fill-opacity:1;fill-rule:evenodd;stroke:none;stroke-width:1px;stroke-linecap:butt;stroke-linejoin:miter;stroke-opacity:1;filter:url(#filter4361)" />
  <path
     inkscape:connector-curvature="0"
     id="path4180"
     d="m 692.53205,319.77932 c -7.12963,0 -73.07871,-12.47685 -73.07871,-12.47685 l -69.51388,-87.33797 -64.16667,-58.81944 -83.77315,-44.56019 -90.90278,-12.47685 -55.25463,16.04167 -12.47685,23.1713 35.64815,55.25463 -57.03704,57.03703 17.82408,44.56019 -42.77778,44.56018 192.5,108.72685 -49.90741,55.25463 -55.25463,62.38426 -78.42592,-8.91203 -7.12963,19.60648 24.9537,35.64815 -114.07407,32.08333 3.56481,16.04167 42.77778,37.43055 -17.82408,35.64815 35.64815,19.60648 -1.78241,32.08333 -17.82407,78.42593 69.51389,-40.99537 65.94907,-16.04167 60.60186,-28.51852 142.59259,60.60186 85.55555,28.51852 -51.68981,89.12037 85.55555,-5.34723 87.33797,-24.9537 67.73148,-62.38426 96.25,-42.77778 80.20833,-21.38889 14.25926,-26.73611 -26.73611,-26.73611 -42.77778,-14.25926 -3.56481,-40.99537 76.64352,-40.99537 14.25926,-64.16667 -19.60649,-49.9074 -60.60185,-32.08334 -71.29629,-8.91203 -28.51852,28.51852 -122.98611,-115.85649 26.73611,-83.77314 z"
     style="fill:url(#radialGradient4238);fill-opacity:1;fill-rule:evenodd;stroke:none;stroke-width:1px;stroke-linecap:butt;stroke-linejoin:miter;stroke-opacity:1;filter:url(#filter4361)" />
  <path
     inkscape:connector-curvature="0"
     id="path4240"
     d="m 633.48108,681.89916 61.84057,-15.1006 66.15502,12.2243 38.11104,20.13414 34.51566,-9.348 49.61627,42.42551 -10.06707,23.72951 -76.22209,15.10061 -70.46948,-3.59538 -53.93072,-23.72952 -38.11105,-28.76306 -11.50522,-17.25783 z"
     style="fill:url(#radialGradient4256);fill-opacity:1;fill-rule:evenodd;stroke:none;stroke-width:1px;stroke-linecap:butt;stroke-linejoin:miter;stroke-opacity:1;filter:url(#filter4361)" />
  <path
     sodipodi:nodetypes="csssssssssssssssssssscsssscssssssssssssssssssssssssssssssssssssscsssssssssssssssssssssscsssssssssssssssssssssssssssssssssssccccsssssssssscssssscsccssssssssssssssssssssssssssssssssssssssssssssssssssssssssssssscsssssssssssssssssssssssssscsssssssssssssssssssssssssssssssssssssssssssssscsssssssssssscsssssscsssssssssssssssssssssscsssssssssssssssssssssssssssssssssscsssscssssssssssssssssssssssscsssscsssssssssssssssssssssssssssssssssssssssssssssssssssssssssssssssssssssss"
     style="fill:#13100e;filter:url(#filter4361)"
     d="m 521.60612,984.97881 c -4.125,-1.97001 -9.60938,-5.92659 -12.1875,-8.79242 -4.17163,-4.63713 -4.6875,-5.93967 -4.6875,-11.8356 0,-5.19542 1.10177,-8.90347 5.10587,-17.1839 2.80823,-5.80737 6.94395,-12.80887 9.19049,-15.55887 2.24655,-2.75 4.97959,-6.73866 6.07343,-8.8637 1.09385,-2.12504 9.89562,-11.82616 19.55951,-21.55806 9.66389,-9.73189 17.5707,-18.19639 17.5707,-18.80999 0,-0.6136 -3.79688,-2.07718 -8.4375,-3.25239 -18.8541,-4.7747 -26.75265,-7.51227 -44.0625,-15.27174 -9.96875,-4.46867 -22.90625,-9.99629 -28.75,-12.28361 -5.84375,-2.2873 -15.7157,-6.39614 -21.93767,-9.13074 -6.22195,-2.7346 -16.34695,-6.50412 -22.5,-8.37671 -14.75323,-4.48995 -28.48723,-10.92386 -50.55123,-23.68157 -19.23993,-11.12478 -30.50825,-15.28495 -37.73097,-13.92996 -2.72955,0.51206 -9.18262,4.75336 -18.01811,11.84246 -7.57104,6.07456 -16.307,12.53406 -19.41325,14.35445 -7.74545,4.53914 -21.56716,7.70247 -47.0012,10.75702 -33.47313,4.02004 -33.61923,4.08853 -72.16565,33.82954 -10.24704,7.90625 -21.62965,17.04688 -25.29469,20.3125 -8.41373,7.49681 -11.84715,7.71634 -19.55117,1.25 -6.35075,-5.33047 -12.09548,-16.84939 -12.08965,-24.2413 0.008,-9.75016 4.01611,-24.11376 9.36865,-33.5712 11.01179,-19.45681 15.44879,-30.66814 20.62674,-52.11927 1.13291,-4.69341 -1.30465,-9.13073 -5.01579,-9.13073 -5.75596,0 -16.64827,-5.50154 -23.4774,-11.85806 l -7.12361,-6.63065 v -9.19314 c 0,-8.03878 0.47089,-9.95175 3.75,-15.23443 8.79468,-14.16828 9.6204,-15.9358 8.86001,-18.96546 -0.93159,-3.71172 -7.77917,-7.85907 -21.80367,-13.20575 -21.03888,-8.02082 -33.53188,-26.57742 -29.06388,-43.1703 1.58595,-5.88977 7.46012,-14.50257 11.85527,-17.38239 1.66229,-1.08917 7.04629,-3.11906 11.96444,-4.51086 4.91815,-1.39179 11.02238,-3.44567 13.56496,-4.56416 2.54258,-1.1185 6.87287,-1.89466 9.62287,-1.7248 2.75,0.16986 14.69498,-1.68665 26.5444,-4.12559 11.84942,-2.43892 23.19404,-4.43441 25.21026,-4.43441 4.44725,0 7.62034,-1.11258 7.62034,-2.67193 0,-0.63495 -1.88494,-2.80945 -4.18876,-4.83223 -3.03484,-2.66463 -5.10094,-6.36207 -7.5,-13.42182 -5.7547,-16.93442 -3.72782,-27.99282 6.77918,-36.98643 8.25394,-7.06507 18.44793,-9.76032 36.78458,-9.72568 15.06646,0.0285 17.98769,0.55533 45.37461,8.18375 7.94248,2.21232 11.70555,1.16163 16.78359,-4.68618 7.61272,-8.76675 22.23699,-28.49865 24.70021,-33.32697 1.43843,-2.81953 9.48373,-12.31242 17.87845,-21.0953 22.0527,-23.07238 34.79075,-37.679 33.98949,-38.97547 -0.38426,-0.62176 -4.31221,-2.85507 -8.72875,-4.96289 -4.41654,-2.10781 -9.59778,-5.13825 -11.51384,-6.73428 -6.85992,-5.71413 -50.05624,-27.01457 -54.78431,-27.01457 -0.81803,0 -2.82879,-1.05328 -4.46838,-2.3406 -1.63958,-1.28734 -6.07482,-3.33044 -9.85607,-4.54024 -3.78125,-1.2098 -9.28068,-3.25027 -12.22094,-4.5344 -2.94026,-1.28411 -6.3561,-2.33476 -7.59072,-2.33476 -1.23464,0 -7.54772,-2.59328 -14.02907,-5.76283 -6.48134,-3.16957 -16.00302,-7.32955 -21.15927,-9.2444 -17.63618,-6.54948 -20.63363,-8.00219 -27.94251,-13.5423 -9.92722,-7.52482 -17.43674,-18.00927 -20.19335,-28.193 -2.84249,-10.501 -1.9708,-16.74727 3.48354,-24.9621 2.3684,-3.56708 4.70322,-7.73654 5.18849,-9.26548 0.48526,-1.52894 1.33383,-2.77989 1.88571,-2.77989 0.55187,0 6.51192,-3.68293 13.24456,-8.1843 6.73262,-4.50137 14.68068,-8.83678 17.66235,-9.63426 3.43331,-0.91827 5.41818,-2.15701 5.41297,-3.37819 -0.0112,-2.76335 -3.69322,-7.90782 -8.59922,-12.01672 -4.35118,-3.64421 -7.64254,-9.77391 -7.64254,-14.23314 0,-1.38981 2.81459,-5.63489 6.25464,-9.43351 3.44005,-3.79862 9.32805,-11.06246 13.08444,-16.14185 8.71685,-11.78694 19.56769,-22.89642 27.53592,-28.19223 8.76928,-5.8282 13.125,-10.10649 13.125,-12.89167 0,-1.44059 -8.88254,-11.14309 -22.38706,-24.45363 -26.58303,-26.20119 -27.34504,-27.55356 -21.8008,-38.69031 9.20815,-18.49649 35.09964,-34.10259 67.97356,-40.9711 12.65755,-2.6446 71.13233,-3.94788 83.24952,-1.85546 13.45599,2.32361 50.05178,14.76593 61.08978,20.77012 9.55311,5.19647 35.16326,21.59208 54.56306,34.93125 10.11641,6.95598 87.07478,82.94858 98.57411,97.33709 3.77455,4.72289 9.57147,11.66008 12.88204,15.41595 3.31056,3.75589 7.8838,9.73545 10.16275,13.28793 7.78004,12.12768 10.43526,13.05291 24.17563,8.42412 5.73735,-1.93277 10.85111,-2.59009 20.15041,-2.59009 17.32179,0 27.56913,2.56085 37.73489,9.43009 9.35009,6.31806 16.72587,7.47615 20.9177,3.28433 3.80996,-3.80997 15.40276,-9.8718 23.15209,-12.10614 5.59373,-1.61284 10.88266,-1.99981 22.5,-1.6463 13.45633,0.40946 15.97091,0.84826 22.06232,3.84994 9.22824,4.54741 18.59809,11.18032 18.68189,13.22491 0.0838,2.04176 3.60918,1.39915 20.01841,-3.64893 19.96236,-6.14115 41.98126,-4.8197 67.34254,4.04153 5.95768,2.08161 12.53637,4.76949 14.61931,5.97305 2.08293,1.20355 5.27031,2.56054 7.08309,3.01551 3.85816,0.96834 25.62902,22.82631 31.67015,31.79685 16.14958,23.98076 25.92839,56.4116 25.9043,85.91016 -0.0135,16.57642 -4.26879,46.74289 -8.37539,59.375 -4.12905,12.7012 -8.1943,27.38844 -8.1943,29.60496 0,1.30021 2.78082,5.10303 6.17961,8.4507 3.39879,3.34769 6.86241,7.82654 7.69695,9.95301 0.83455,2.12648 3.16778,5.6338 5.18498,7.79405 5.59877,5.99584 17.18846,39.85423 17.18846,50.2148 0,3.00999 0.91154,8.6083 2.02565,12.44069 1.87779,6.45936 1.87115,7.75078 -0.0909,17.69238 -3.22252,16.32871 -10.40362,35.78071 -16.49243,44.67432 -7.04277,10.28701 -22.27764,25.19099 -28.56735,27.94686 -5.02455,2.20154 -26.44919,14.46492 -31.40434,17.9757 -4.53031,3.2098 -10.47065,13.33203 -10.47065,17.84183 0,2.28839 0.19745,4.1607 0.43879,4.1607 0.24134,0 6.2561,1.43935 13.36615,3.19856 20.895,5.16998 29.11821,9.65483 43.76868,23.87104 6.94943,6.74341 13.51784,14.23955 14.59647,16.65807 2.81155,6.30408 2.73097,21.89589 -0.14222,27.52233 -4.96456,9.72189 -25.91594,22.42724 -45.24383,27.43677 -5.55003,1.43851 -18.24231,3.69002 -28.20506,5.00338 -26.22319,3.45693 -46.29727,8.93633 -59.12749,16.13936 -3.47956,1.95348 -8.45645,4.24765 -11.05975,5.09817 -8.27644,2.70399 -40.26527,18.45657 -44.19545,21.76362 -2.0798,1.75004 -7.56198,8.51521 -12.18261,15.03372 -4.62064,6.51852 -12.29805,15.52799 -17.06093,20.02104 -10.07571,9.50491 -33.44289,25.56479 -39.88486,27.41221 -2.44359,0.70077 -6.13039,2.82113 -8.19289,4.7119 -2.0625,1.89078 -9.375,5.7055 -16.25,8.47718 -27.45292,11.06771 -71.67417,27.63916 -78.75,29.51074 -14.81995,3.91992 -31.68867,5.79011 -57.5,6.37485 l -26.25,0.59467 -7.5,-3.58182 z m 56.46568,-40.02137 c 8.86943,-4.49773 21.46192,-7.37813 38.8639,-8.8897 9.27221,-0.80538 14.99928,-2.15007 24.04573,-5.64578 6.53108,-2.52373 18.48478,-6.26626 26.56378,-8.31677 21.23938,-5.39064 38.21615,-13.79738 50.31091,-24.91348 2.0625,-1.89561 6.92616,-5.45435 10.80815,-7.9083 6.56132,-4.14766 12.31685,-10.92388 12.31685,-14.50112 0,-1.61817 -3.98478,-1.4227 -22.5,1.10374 -5.15625,0.70358 -19.21875,2.06829 -31.25,3.03269 -18.51349,1.484 -25.04443,1.49572 -42.5,0.0762 -11.34375,-0.92248 -26.58288,-2.0567 -33.86471,-2.5205 l -13.2397,-0.84326 -3.31768,4.34967 c -1.82471,2.39233 -3.9685,6.26836 -4.76397,8.61343 -0.79548,2.34505 -2.50035,5.77797 -3.78862,7.62871 -1.28826,1.85075 -3.19135,5.39705 -4.22906,7.88066 -1.03772,2.48362 -5.38202,8.73694 -9.65401,13.89629 -11.68222,14.10881 -19.52461,25.75421 -19.58672,29.08495 -0.0545,2.92071 0.1155,2.96564 9.00697,2.38104 6.87424,-0.45197 10.92555,-1.5406 16.77818,-4.5085 z m 105.40932,-87.72496 c 10.65625,-0.69179 29.78125,-1.79544 42.5,-2.45257 13.86925,-0.71658 27.6278,-2.17493 34.375,-3.64364 36.57695,-7.9619 34.59563,-7.2639 66.25,-23.33949 28.78174,-14.61672 35.91034,-17.66916 52.5,-22.48031 4.125,-1.19629 14.73994,-4.62946 23.58875,-7.62926 8.84881,-2.9998 18.19919,-5.45419 20.7786,-5.45419 5.77516,0 15.78026,-4.27235 17.49104,-7.46898 2.50598,-4.68246 1.4785,-10.95271 -2.54586,-15.53621 -4.80158,-5.46867 -8.60719,-6.62404 -24.93753,-7.5709 -18.82129,-1.09129 -39.66823,1.36716 -59.375,7.00203 -4.8125,1.37605 -12.125,3.03222 -16.25,3.68037 -4.125,0.64816 -12.28125,2.85228 -18.125,4.89804 -13.67757,4.78821 -26.4793,6.25261 -54.34221,6.21622 -18.79287,-0.0245 -24.08883,-0.45563 -31.90779,-2.5974 -5.15625,-1.4124 -14.42325,-3.65773 -20.59333,-4.98965 -6.17008,-1.33191 -14.80512,-3.63321 -19.18898,-5.11401 -8.87927,-2.99926 -35.6096,-17.8708 -43.34269,-24.11389 -2.75,-2.22013 -6.6875,-4.91383 -8.75,-5.98601 -4.8818,-2.53775 -24.43854,-23.06362 -28.9729,-30.40865 -1.93991,-3.14236 -6.09556,-9.21726 -9.2348,-13.49976 -7.55141,-10.30155 -18.6673,-29.82648 -18.6673,-32.78889 0,-1.29581 -1.99426,-6.4669 -4.4317,-11.49131 -2.43744,-5.02441 -5.01209,-12.33496 -5.72144,-16.24565 -0.70935,-3.91069 -2.65259,-9.46051 -4.3183,-12.33294 -1.66571,-2.87242 -3.02856,-6.15535 -3.02856,-7.2954 0,-2.65416 -4.52945,-19.24293 -7.61947,-27.90574 -1.30929,-3.67056 -2.3804,-8.45181 -2.38024,-10.625 3.5e-4,-4.85646 -5.1955,-23.16447 -10.21167,-35.98168 -3.88262,-9.92083 -6.43943,-12.34459 -13.02223,-12.34459 -4.28429,0 -12.63216,4.44641 -14.34039,7.63829 -0.84426,1.57751 -1.86225,2.17546 -2.54364,1.49407 -0.68139,-0.68138 -0.0516,-4.34731 1.5737,-9.16001 4.10128,-12.14456 10.94651,-18.79606 24.32569,-23.63721 6.28968,-2.27586 12.9864,-3.82301 16.47109,-3.80531 6.96311,0.0354 15.0287,1.75171 16.86608,3.5891 1.77969,1.77968 -0.91071,7.63107 -3.50867,7.63107 -2.39324,0 -14.36025,5.9639 -14.36025,7.1566 0,0.47546 8.21417,9.32536 18.25374,19.66644 10.03955,10.34107 22.27392,22.95039 27.1875,28.02069 13.19968,13.62071 38.29642,29.80785 43.99645,28.37723 2.70287,-0.67837 6.81231,1.82048 6.81231,4.14243 0,0.51415 4.35937,2.82054 9.6875,5.12529 5.32812,2.30476 14.48906,6.5704 20.35765,9.47917 5.86857,2.90878 15.5173,6.76716 21.44162,8.5742 5.92432,1.80703 11.40538,4.0493 12.18015,4.98285 0.77478,0.93354 3.93622,2.33379 7.02543,3.11166 3.08921,0.77788 13.95174,4.75433 24.13894,8.83655 10.1872,4.08223 25.50202,9.12797 34.03295,11.21275 8.53092,2.08478 19.57702,4.92083 24.54691,6.30233 4.96987,1.3815 10.0892,2.51181 11.37629,2.51181 1.28707,0 7.90831,1.34749 14.71385,2.99443 6.80553,1.64692 17.71746,3.33427 24.24871,3.74966 12.99414,0.82641 37.70895,-1.55778 48.125,-4.64251 3.4375,-1.01803 10.80425,-2.12949 16.37056,-2.46992 11.63249,-0.71141 15.33016,-2.31968 22.63276,-9.8439 5.75464,-5.92927 9.12168,-12.70145 9.12168,-18.34656 0,-2.0015 1.50676,-6.93031 3.34838,-10.9529 6.34086,-13.85027 5.47293,-28.75777 -2.93947,-50.4883 -4.64433,-11.99704 -8.09791,-17.27081 -16.88182,-25.77934 -8.36108,-8.09892 -13.1034,-10.95067 -26.75643,-16.08966 -4.64672,-1.74903 -9.05543,-3.68116 -9.79712,-4.29366 -0.7417,-0.61249 -3.59854,-1.52039 -6.34854,-2.01754 -2.75,-0.49716 -6.40625,-1.61129 -8.125,-2.47586 -9.49814,-4.77775 -38.85509,-5.50228 -52.5,-1.29569 -16.09971,4.96339 -28.4012,12.42616 -32.49774,19.71497 -1.46422,2.60523 -3.17467,4.73678 -3.801,4.73678 -0.62632,0 -4.38721,-3.43879 -8.35752,-7.64175 -3.9703,-4.20296 -9.31657,-8.98398 -11.88057,-10.62448 -2.56401,-1.6405 -5.79481,-5.20355 -7.17957,-7.9179 -1.38475,-2.71434 -6.59943,-8.38782 -11.58816,-12.60771 -4.98874,-4.2199 -13.15878,-11.57975 -18.15564,-16.35525 -4.99685,-4.77548 -13.1531,-11.26541 -18.125,-14.42205 -4.97189,-3.15663 -12.76064,-8.18585 -17.30831,-11.17602 -7.18013,-4.72104 -14.67475,-7.91334 -30.57024,-13.02128 -2.11131,-0.67846 -6.54491,-1.23356 -9.85245,-1.23356 -3.76484,0 -7.47735,-0.90458 -9.92763,-2.41893 -2.34002,-1.44622 -6.67191,-2.54987 -10.77253,-2.74456 -3.77225,-0.1791 -7.31715,-0.55267 -7.87756,-0.83017 -1.45866,-0.72227 2.7247,-5.07598 8.25172,-8.58775 5.68733,-3.61363 9.06809,-8.82645 10.1623,-15.66932 0.44558,-2.78641 1.63583,-6.24505 2.64501,-7.68587 1.00919,-1.44081 1.83489,-3.55063 1.83489,-4.68848 0,-1.13785 0.81619,-2.74618 1.81374,-3.57407 0.99755,-0.8279 2.18078,-4.13115 2.6294,-7.34056 0.44861,-3.20941 2.81959,-10.89779 5.26884,-17.08529 2.44926,-6.1875 4.89088,-13.21875 5.42585,-15.625 0.53496,-2.40625 2.74918,-9.36706 4.92052,-15.46849 l 3.94786,-11.09347 -3.09717,-3.09719 c -2.56401,-2.56401 -5.00685,-3.30965 -14.19061,-4.33145 -6.10139,-0.67886 -14.46843,-0.86964 -18.59343,-0.42396 -4.125,0.44569 -12.05901,0.99531 -17.63114,1.2214 -5.57212,0.2261 -11.30076,1.03705 -12.73032,1.80212 -1.42955,0.76507 -5.2824,1.39104 -8.5619,1.39104 -6.06548,0 -30.80928,6.37575 -36.95206,9.52145 -1.85649,0.9507 -4.54228,1.72855 -5.96844,1.72855 -1.61571,0 -3.04081,1.1778 -3.78114,3.125 -0.84232,2.21548 -2.12394,3.125 -4.40344,3.125 -4.76446,0 -28.87238,11.7807 -34.48562,16.85193 -2.67748,2.41893 -5.4274,4.39807 -6.11094,4.39807 -0.68354,0 -3.35379,1.8921 -5.9339,4.20467 -2.5801,2.31255 -6.49126,5.12503 -8.69147,6.24996 -2.2002,1.12492 -4.4502,2.78838 -5,3.69657 -1.51575,2.50383 -14.13183,12.0988 -15.90827,12.0988 -0.85752,0 -6.24022,3.68806 -11.96155,8.1957 -5.72131,4.50764 -12.05508,9.05034 -14.07501,10.09489 -2.01994,1.04455 -7.97737,6.14768 -13.23872,11.34031 -5.26135,5.19261 -11.53483,10.71801 -13.94108,12.27865 -2.40625,1.56064 -12.53125,10.77955 -22.5,20.48646 -9.96875,9.70692 -19.39158,17.98129 -20.93963,18.3875 -2.51607,0.66024 -7.36646,6.42168 -23.07854,27.41338 -2.60252,3.47703 -7.2249,8.07913 -10.27193,10.22688 -3.04705,2.14775 -6.54112,5.4904 -7.7646,7.42812 -1.22348,1.93771 -3.93357,5.13002 -6.0224,7.09403 -2.08885,1.96402 -5.69558,5.33902 -8.01495,7.5 -2.31939,2.16099 -7.92756,8.14783 -12.46263,13.30408 -25.37517,28.85096 -31.93462,33.16241 -43.55145,28.62581 -4.28922,-1.67502 -38.08421,-2.9046 -48.71087,-1.77226 -4.23061,0.4508 -8.67894,1.54129 -9.88519,2.42333 -2.08762,1.5265 -2.08433,1.74801 0.0684,4.60192 1.24386,1.64902 5.6786,5.52903 9.85496,8.62221 4.17636,3.0932 9.01324,7.03339 10.74861,8.756 1.73538,1.7226 7.54435,7.0213 12.90884,11.77488 13.9981,12.404 15.24476,14.42113 13.41175,21.70066 -0.81035,3.21819 -3.68219,9.159 -6.38186,13.2018 -5.3099,7.95162 -6.18165,13.09196 -2.721,16.04451 1.20312,1.02648 6.40625,3.99293 11.5625,6.59211 12.16925,6.13432 16.7741,9.65878 18.7026,14.31458 1.41083,3.40609 1.18521,4.60775 -2.2392,11.92555 -5.43517,11.61467 -10.62794,18.70311 -21.81604,29.7802 -13.14576,13.01531 -13.0726,13.31745 5.39588,22.28326 17.70374,8.59455 20.38738,11.43983 22.53132,23.88841 1.96372,11.40214 3.00777,13.48703 6.75389,13.48703 1.64476,0 11.00865,-2.53125 20.80865,-5.625 15.94588,-5.03395 19.07485,-5.62489 29.77802,-5.62398 17.86204,10e-4 28.54875,2.66028 42.62065,10.60359 6.55093,3.69788 15.26967,7.97505 19.375,9.50484 4.10533,1.52979 9.43298,4.01776 11.83923,5.52882 2.40625,1.51107 9.71875,4.85714 16.25,7.43572 6.53125,2.57857 13.65273,5.47553 15.82552,6.43767 2.17278,0.96215 10.77986,4.03273 19.12685,6.8235 8.34699,2.79078 19.20963,7.00705 24.13922,9.36949 4.92958,2.36245 10.04736,4.29535 11.37283,4.29535 1.32548,0 6.96635,1.64612 12.53527,3.65806 14.03875,5.0719 25.78281,8.34044 38.25031,10.64561 5.84375,1.08048 13.4375,2.5039 16.875,3.16315 3.4375,0.65927 11.03032,1.82612 16.87294,2.59302 5.84261,0.7669 10.85823,1.62966 11.14582,1.91726 1.04821,1.04821 63.7602,0.4958 82.60623,-0.72764 z M 179.80179,839.07221 c 4.17016,-2.11318 8.18647,-5.67045 12.11764,-10.73269 6.35984,-8.18964 17.88835,-17.60004 26.03033,-21.2478 3.49611,-1.56634 10.74879,-2.69597 23.125,-3.60182 9.91725,-0.72589 20.28136,-1.73569 23.03136,-2.24402 l 5,-0.92422 0.35786,-10.69308 c 0.31229,-9.33122 0.0196,-11.12305 -2.29786,-14.06928 -3.54145,-4.50223 -7.48425,-6.39732 -19.91101,-9.57015 -11.11624,-2.83823 -20.71873,-8.37063 -22.44025,-12.92878 -2.09498,-5.54691 -2.71516,-13.19637 -1.44917,-17.87407 1.50801,-5.57187 7.27389,-12.91733 22.09098,-28.14279 11.23655,-11.54625 12.92024,-15.41155 7.32482,-16.81591 -1.75978,-0.44168 -9.21291,-3.23728 -16.5625,-6.21243 -14.23801,-5.76362 -22.25036,-11.27952 -23.47557,-16.16114 -1.32664,-5.28575 3.04686,-15.48022 9.14981,-21.32787 3.07829,-2.94953 5.22418,-5.96585 4.76863,-6.70295 -1.18079,-1.91055 -16.59604,-1.66315 -32.63522,0.52376 -26.25045,3.57921 -30.0826,4.32384 -38.43881,7.46911 -4.62758,1.74182 -9.66657,3.17244 -11.19775,3.17915 -2.89326,0.0127 -15.90896,5.59468 -15.90896,6.82282 0,2.20342 6.35351,9.61704 12.88932,15.03997 20.03576,16.62416 29.61068,27.16449 29.61068,32.59623 0,1.9181 -1.98568,4.40435 -6.08978,7.62495 -7.68555,6.03107 -11.77042,13.29031 -10.64502,18.9173 0.9518,4.75901 6.88806,8.76368 19.10785,12.89037 4.21823,1.42453 8.14656,3.51954 8.72962,4.65559 3.4118,6.64769 1.47295,43.91962 -2.90348,55.81556 -1.0117,2.75 -1.87397,6.125 -1.91614,7.5 -0.0422,1.375 -1.72321,8.08851 -3.73562,14.9189 -4.734,16.0678 -4.38498,16.69623 6.27324,11.29529 z m 621.32347,-78.04952 c 9.88947,-1.35318 21.35586,-3.38413 25.48086,-4.51323 4.125,-1.1291 13.88694,-3.35415 21.69321,-4.94456 10.18534,-2.07513 15.02849,-3.67638 17.15121,-5.67059 3.16442,-2.9728 6.17248,-10.3614 4.99442,-12.26755 -0.39265,-0.63533 -3.94828,-2.97525 -7.90138,-5.19983 -6.9557,-3.91426 -16.10465,-10.72967 -26.95385,-20.07897 -9.30693,-8.02025 -15.03272,-9.44083 -19.60861,-4.86494 -4.39195,4.39195 -3.28698,9.58759 3.4375,16.16326 3.26562,3.19337 7.30166,6.6693 8.96897,7.7243 2.04618,1.29473 2.76992,2.59979 2.22674,4.0153 -1.80914,4.71453 -11.52466,1.02441 -15.88711,-6.03416 -4.84609,-7.84115 -42.09653,-30.53631 -57.75055,-35.18506 -3.53471,-1.0497 -7.62831,-2.69583 -9.09686,-3.65807 -3.22522,-2.11325 -11.54782,-3.80304 -30.60118,-6.21321 -24.47154,-3.09554 -45.03031,-2.12784 -61.07,2.87458 -7.40403,2.30915 -15.22751,9.65455 -15.22751,14.29701 0,4.72917 5.00462,13.30765 10.67595,18.29976 6.83989,6.0207 48.58162,31.30179 61.10729,37.00991 21.8351,9.95058 53.97994,12.95042 88.3609,8.24605 z M 787.29848,503.44697 c 3.28398,-1.75753 6.68201,-9.66204 11.66111,-27.12611 5.82673,-20.43705 7.64743,-37.3934 6.38494,-59.46359 -0.55842,-9.76209 -0.92186,-20.843 -0.80764,-24.62425 0.2315,-7.66382 -2.66153,-22.14488 -5.53376,-27.69915 -1.0308,-1.99335 -1.56721,-4.12095 -1.19204,-4.72799 1.49646,-2.42131 -10.49002,-28.63756 -15.75008,-34.44786 -1.24479,-1.375 -4.05311,-4.64251 -6.24073,-7.26114 -6.38502,-7.64307 -12.41526,-10.06348 -23.06542,-9.25802 -5.48548,0.41487 -10.9597,1.70346 -14.14922,3.33064 -8.54302,4.35832 -22.13886,16.03418 -26.73435,22.95897 -14.05163,21.17394 -19.51286,32.25303 -19.99822,40.57004 l -0.26695,4.57437 6.83426,1.11868 c 5.91949,0.96892 7.6763,1.97851 13.125,7.54256 15.07833,15.3975 22.82959,30.3628 25.1675,48.59067 0.37623,2.93328 1.2016,7.30198 1.83416,9.70823 0.63258,2.40625 1.15328,6.78447 1.1571,9.72939 0.006,5.08452 0.53791,5.86066 10.54079,15.39912 5.7936,5.5246 13.52798,13.99601 17.1875,18.82536 3.65953,4.82935 8.62244,9.82802 11.02869,11.10814 5.18497,2.7584 5.6919,2.82463 8.81736,1.15194 z m 135.83034,-6.52645 c 0.6621,-0.85938 1.9205,-5.78125 2.79644,-10.9375 0.87594,-5.15625 2.42201,-11.34375 3.43572,-13.75 1.0137,-2.40625 2.29495,-7.1875 2.84723,-10.625 0.55227,-3.4375 1.66786,-9.55061 2.47908,-13.5847 2.45282,-12.19743 -0.5596,-44.6723 -4.9404,-53.25937 -1.38367,-2.71223 -2.51577,-6.03315 -2.51577,-7.37983 0,-1.34667 -0.80329,-4.04096 -1.78509,-5.9873 -0.9818,-1.94634 -2.39412,-5.87431 -3.13849,-8.72882 -1.67737,-6.43247 -14.00707,-20.0361 -19.46876,-21.48034 -2.66847,-0.70563 -4.3895,-2.3901 -6.03655,-5.90833 -2.97101,-6.34638 -10.63244,-14.29631 -13.77747,-14.29631 -1.34695,0 -4.74841,-1.32686 -7.55882,-2.94857 -6.21825,-3.58819 -15.0411,-5.05973 -30.73482,-5.12615 -12.37408,-0.0524 -22.85019,2.67686 -24.24697,6.31685 -0.36172,0.94261 0.22501,4.11437 1.30385,7.04836 1.07882,2.93398 2.67991,8.99076 3.55796,13.45951 0.87805,4.46875 2.48941,12.45154 3.58081,17.73954 1.24839,6.04869 2.21132,19.02949 2.59635,35 0.33659,13.962 0.63359,26.16918 0.66,27.12706 0.0264,0.95789 4.00395,5.57397 8.839,10.25797 9.35604,9.06377 11.61616,13.04402 13.0511,22.98397 0.49493,3.42844 1.72135,7.8221 2.72539,9.76369 1.21035,2.34056 1.69611,6.32242 1.44151,11.81617 l -0.384,8.28601 4.375,1.01958 c 2.40625,0.56076 7.28302,0.70042 10.83726,0.31037 3.55425,-0.39006 12.8355,0.16551 20.625,1.23461 26.15083,3.58918 27.86626,3.68525 29.43544,1.64853 z m -519.16162,-67.5 c 2.96605,-2.92188 7.58569,-7.32685 10.26587,-9.78885 2.68017,-2.46199 5.99805,-5.66136 7.37305,-7.10973 3.37609,-3.55622 13.7964,-12.31031 21.91876,-18.41392 3.65956,-2.75 10.41926,-8.375 15.02156,-12.5 4.6023,-4.125 10.44443,-8.90625 12.98249,-10.625 2.53806,-1.71875 12.53154,-9.17187 22.20773,-16.5625 9.6762,-7.39062 18.53211,-13.4375 19.67981,-13.4375 2.95203,0 16.32889,-8.14981 20.11004,-12.25197 1.7437,-1.89175 6.69376,-4.9676 11.00012,-6.83523 4.30638,-1.86761 9.91095,-5.04075 12.45463,-7.05141 2.54367,-2.01067 8.96178,-5.32064 14.26249,-7.35549 5.30068,-2.03485 11.27221,-5.03423 13.27003,-6.66531 1.99784,-1.63107 4.69217,-3.61067 5.98739,-4.39911 1.99326,-1.21335 2.11111,-1.7893 0.76733,-3.75 -0.8732,-1.27406 -2.41469,-4.11364 -3.42553,-6.31016 -1.01084,-2.19653 -2.57386,-4.44653 -3.47339,-5 -0.89951,-0.55348 -3.14278,-4.10007 -4.98503,-7.88132 -4.14724,-8.51226 -11.9554,-18.89085 -15.56678,-20.69131 -1.49027,-0.74298 -5.85219,-4.9695 -9.69315,-9.39228 -11.19994,-12.89645 -28.38536,-29.97322 -33.35455,-33.14368 -2.52232,-1.6093 -8.07767,-6.04152 -12.3452,-9.84937 -4.26754,-3.80785 -8.32513,-6.92336 -9.01688,-6.92336 -0.69173,0 -4.72863,-3.51562 -8.97088,-7.8125 -4.24224,-4.29687 -8.78882,-8.65625 -10.1035,-9.6875 -3.99942,-3.13719 -13.12428,-8.75 -14.22506,-8.75 -0.56965,0 -4.66145,-2.67187 -9.0929,-5.9375 -4.43143,-3.26562 -12.8052,-7.86803 -18.60835,-10.22757 -5.80315,-2.35954 -11.89267,-5.31266 -13.53226,-6.5625 -1.63958,-1.24984 -3.89406,-2.27243 -5.00995,-2.27243 -1.11587,0 -4.64215,-1.39116 -7.83615,-3.09146 -3.46812,-1.84622 -7.63483,-3.02275 -10.34443,-2.92088 -2.8569,0.1074 -5.8442,-0.79579 -8.06659,-2.43887 -3.76657,-2.78474 -22.76951,-9.04879 -27.45088,-9.04879 -1.54553,0 -4.54656,-0.89797 -6.66895,-1.9955 -2.12237,-1.09753 -7.29756,-2.14002 -11.50042,-2.31666 -4.20285,-0.17664 -11.2978,-1.07836 -15.76655,-2.00382 -4.46875,-0.92546 -10.375,-1.65496 -13.125,-1.62112 -10.39739,0.12796 -28.62347,3.04061 -34.05139,5.44164 -3.10278,1.3725 -7.00409,2.49546 -8.66959,2.49546 -6.04573,0 -19.15402,8.71229 -19.15402,12.73054 0,3.4134 1.77425,6.40803 10.8599,18.32968 4.37405,5.73937 8.86582,12.20812 9.98172,14.375 1.1159,2.16688 3.28978,5.62728 4.83083,7.68978 1.54106,2.0625 4.5855,7.31704 6.76541,11.67675 3.54559,7.09099 3.87311,8.65006 3.10637,14.78676 -0.58956,4.71873 -1.49107,7.05585 -2.88816,7.48744 -3.83919,1.186 -7.04105,2.97444 -12.03107,6.72014 -2.75,2.06424 -7.09445,4.87091 -9.65434,6.23702 -2.55989,1.36613 -6.8408,5.43318 -9.51314,9.03788 -2.67233,3.60471 -8.35936,9.35153 -12.63782,12.77072 -7.33685,5.86335 -7.7449,6.4673 -7.17863,10.625 1.4169,10.40304 7.44913,24.76127 14.33535,34.1218 2.94329,4.00084 5.01175,7.82387 4.59659,8.4956 -0.41515,0.67174 -3.80586,3.47528 -7.53491,6.23009 -3.72905,2.75481 -11.1032,9.27609 -16.38699,14.49174 -5.2838,5.21565 -11.22734,10.04789 -13.20787,10.73831 -3.64061,1.26911 -9.69324,9.28209 -9.69324,12.83271 0,2.1275 0.0797,2.16512 18.75,8.84042 7.21875,2.58096 21.28125,8.32487 31.25,12.76422 9.96875,4.43936 21.21054,9.14361 24.98173,10.45389 3.77122,1.31027 8.83372,3.69771 11.25,5.3054 8.77502,5.8385 19.7569,11.92344 37.51827,20.7884 9.96875,4.97555 21.98126,11.56272 26.69447,14.63816 4.71322,3.07544 11.46322,6.98069 15,8.67834 3.53679,1.69766 8.34184,4.45185 10.67788,6.12042 6.36582,4.54695 10.50225,3.98801 16.86373,-2.27871 z"
     id="path4157"
     inkscape:connector-curvature="0" />
</svg>
